<svg xmlns="http://www.w3.org/2000/svg" class="icon icon-tabler icon-tabler-ruler-measure" width="24" height="24" viewBox="0 0 24 24" stroke-width="2" stroke="currentColor" fill="none" stroke-linecap="round" stroke-linejoin="round">
  <path stroke="none" d="M0 0h24v24H0z" fill="none"/>
  <path d="M19.875 12c.621 0 1.125 .512 1.125 1.143v5.714c0 .631 -.504 1.143 -1.125 1.143h-15.75c-.621 0 -1.125 -.512 -1.125 -1.143v-5.714c0 -.631 .504 -1.143 1.125 -1.143h15.75z" />
  <path d="M9 12v2" />
  <path d="M6 12v3" />
  <path d="M12 12v3" />
  <path d="M18 12v3" />
  <path d="M15 12v2" />
  <path d="M3 7l18 0" />
  <path d="M5 5l0 4" />
  <path d="M19 5l0 4" />
</svg>
